<?xml version="1.0" encoding="UTF-8" standalone="no"?>
<!-- Created with Inkscape (http://www.inkscape.org/) -->

<svg
   width="16"
   height="16"
   viewBox="0 0 16 16"
   version="1.1"
   id="svg1"
   inkscape:version="1.4.2 (f4327f4, 2025-05-13)"
   sodipodi:docname="TypeScript.svg"
   xmlns:inkscape="http://www.inkscape.org/namespaces/inkscape"
   xmlns:sodipodi="http://sodipodi.sourceforge.net/DTD/sodipodi-0.dtd"
   xmlns="http://www.w3.org/2000/svg"
   xmlns:svg="http://www.w3.org/2000/svg">
  <sodipodi:namedview
     id="namedview1"
     pagecolor="#ffffff"
     bordercolor="#000000"
     borderopacity="0.25"
     inkscape:showpageshadow="2"
     inkscape:pageopacity="0.0"
     inkscape:pagecheckerboard="0"
     inkscape:deskcolor="#d1d1d1"
     inkscape:document-units="px"
     inkscape:zoom="45.9375"
     inkscape:cx="8.0108844"
     inkscape:cy="1.2734694"
     inkscape:window-width="1920"
     inkscape:window-height="974"
     inkscape:window-x="-11"
     inkscape:window-y="-11"
     inkscape:window-maximized="1"
     inkscape:current-layer="layer1" />
  <defs
     id="defs1">
    <linearGradient
       id="g"
       x1="0.7414425"
       x2="590.86261"
       y1="3.6658268"
       y2="593.78699"
       gradientUnits="userSpaceOnUse"
       spreadMethod="pad"
       gradientTransform="matrix(0.02711307,0,0,0.01766068,0.06356993,1.2998858)">
      <stop
         offset="0"
         stop-color="#cbced0"
         stop-opacity="1"
         id="stop1" />
      <stop
         offset="1"
         stop-color="#84838b"
         stop-opacity="1"
         id="stop2" />
    </linearGradient>
  </defs>
  <g
     inkscape:label="Layer 1"
     inkscape:groupmode="layer"
     id="layer1">
    <rect
       fill="#3178c6"
       height="16"
       rx="1.5625"
       width="16"
       id="rect1"
       style="fill:#ababab;fill-opacity:1;stroke-width:0.03125"
       x="0.062585033"
       y="-0.014965987" />
    <rect
       fill="#3178c6"
       height="16"
       rx="1.5625"
       width="16"
       id="rect2"
       style="fill:none;stroke-width:0.03125"
       x="0.062585033"
       y="-0.014965987" />
    <path
       clip-rule="evenodd"
       d="m 9.966925,12.717034 v 1.56441 c 0.25432,0.13037 0.5551,0.22812 0.90235,0.29331 0.34725,0.0652 0.71322,0.0978 1.09797,0.0978 0.37496,0 0.73115,-0.0358 1.06862,-0.10756 0.33747,-0.0717 0.63338,-0.18985 0.88769,-0.35444 0.25431,-0.16456 0.45565,-0.37969 0.604,-0.64531 0.14834,-0.26563 0.22253,-0.59397 0.22253,-0.98507 0,-0.28356 -0.0424,-0.53206 -0.12716,-0.74553 -0.0848,-0.21347 -0.20703,-0.40331 -0.36681,-0.56953 -0.15975,-0.16622 -0.35131,-0.31534 -0.57466,-0.44734 -0.22334,-0.132 -0.47521,-0.25666 -0.75562,-0.37397 -0.20541,-0.0847 -0.38963,-0.16703 -0.55266,-0.24687 -0.16303,-0.0799 -0.30159,-0.16135 -0.41571,-0.24444 -0.11413,-0.0831 -0.20216,-0.17113 -0.2641,-0.264 -0.0619,-0.0929 -0.0929,-0.198 -0.0929,-0.31535 0,-0.10753 0.0277,-0.2045 0.0832,-0.29087 0.0554,-0.0864 0.13369,-0.1605 0.23475,-0.22244 0.10109,-0.0619 0.22497,-0.11 0.37169,-0.14422 0.14675,-0.0342 0.30975,-0.0513 0.48909,-0.0513 0.13041,0 0.26816,0.01 0.41325,0.0293 0.14509,0.0196 0.291,0.0497 0.43775,0.0904 0.14672,0.0408 0.28934,0.0921 0.42794,0.154 0.13856,0.0619 0.26653,0.13363 0.3839,0.21512 v -1.46175 c -0.238,-0.0913 -0.49803,-0.15887 -0.78006,-0.20287 -0.28203,-0.044 -0.60565,-0.066 -0.97081,-0.066 -0.37172,0 -0.72384,0.0399 -1.05641,0.11978 -0.33256,0.0798 -0.62518,0.2045 -0.8779,0.37397 -0.25269,0.1695 -0.45238,0.38541 -0.5991,0.64778 -0.14672,0.26235 -0.22009,0.57603 -0.22009,0.94106 0,0.46607 0.1345,0.86369 0.4035,1.19288 0.26897,0.32915 0.67734,0.60781 1.22512,0.83597 0.21519,0.088 0.41572,0.17434 0.60157,0.25909 0.18584,0.0848 0.34643,0.17275 0.48172,0.264 0.13531,0.0913 0.24209,0.19066 0.32037,0.29822 0.0782,0.10753 0.11738,0.22975 0.11738,0.36666 0,0.10103 -0.0245,0.19471 -0.0734,0.28109 -0.0489,0.0864 -0.12309,0.16131 -0.22253,0.22488 -0.0994,0.0636 -0.22334,0.11325 -0.37169,0.14909 -0.14837,0.0359 -0.32197,0.0538 -0.52087,0.0538 -0.3391,0 -0.67491,-0.0595 -1.0075,-0.17844 -0.33257,-0.11894 -0.64069,-0.29737 -0.92435,-0.53531 z m -2.62997,-3.85444 h 2.00688 v -1.28381 h -5.59375 v 1.28381 h 1.99706 v 5.71619 h 1.58981 z"
       fill="#ffffff"
       fill-rule="evenodd"
       id="path2"
       style="stroke-width:0.03125" />
  </g>
</svg>
